<svg width="22" height="19" viewBox="0 0 22 19" fill="none" xmlns="http://www.w3.org/2000/svg">
<path d="M8.10682 14.4187C7.79143 14.2689 7.45411 14.2244 7.12449 14.2634C6.42107 14.3065 5.76687 14.7044 5.44465 15.3635C5.43143 15.3905 5.41891 15.4177 5.40708 15.445C5.39216 15.4724 5.37784 15.5001 5.36414 15.5282C5.32514 15.6449 5.29623 15.7629 5.27726 15.8811C5.25909 15.9873 5.25016 16.0941 5.2501 16.2004C5.24268 16.9659 5.65202 17.6939 6.43965 18.068C7.33133 18.4464 8.57007 18.2587 9.04926 17.2786C9.12419 17.1253 9.17753 16.9619 9.2103 16.7933C9.36835 15.9805 9.04803 15.0491 8.36498 14.5694C8.28396 14.5125 8.19785 14.4619 8.10682 14.4187Z" fill="#212121"/>
<path d="M17.1068 14.4187C16.7914 14.2689 16.4541 14.2244 16.1245 14.2634C15.4211 14.3065 14.7669 14.7044 14.4446 15.3635C14.4314 15.3905 14.4189 15.4177 14.4071 15.445C14.3922 15.4724 14.3778 15.5001 14.3641 15.5282C14.3251 15.6449 14.2962 15.7629 14.2773 15.8811C14.2591 15.9873 14.2502 16.0941 14.2501 16.2004C14.2427 16.9659 14.652 17.6939 15.4397 18.068C16.3313 18.4464 17.5701 18.2587 18.0493 17.2786C18.1242 17.1253 18.1775 16.9619 18.2103 16.7933C18.3684 15.9805 18.048 15.0491 17.365 14.5694C17.284 14.5125 17.1978 14.4619 17.1068 14.4187Z" fill="#212121"/>
<path fill-rule="evenodd" clip-rule="evenodd" d="M0 1.25C0 0.559644 0.559644 0 1.25 0H4.75C5.35772 0 5.87739 0.437088 5.98151 1.03582L6.32834 3.03008L6.38087 3.31624C6.51895 2.7313 7.06378 2.3153 7.683 2.35787C9.99739 2.51695 13.0977 2.43197 15.6556 2.30246C16.9268 2.23809 18.0503 2.1635 18.8557 2.10501C19.2582 2.07578 19.5809 2.0506 19.8024 2.03277C19.9132 2.02386 19.9986 2.01679 20.056 2.01197L20.1209 2.00649L20.1417 2.0047C20.5384 1.97021 20.9278 2.12679 21.1902 2.4263C21.4526 2.72582 21.5566 3.13244 21.4702 3.52116L19.4702 12.5212C19.3431 13.0931 18.8359 13.5 18.25 13.5H6.75C6.14669 13.5 5.62948 13.0691 5.52054 12.4757L3.86626 3.46419L3.69863 2.5H1.25C0.559644 2.5 0 1.94036 0 1.25Z" fill="#212121"/>
</svg>
