<svg width="25" height="22" viewBox="0 0 25 22" fill="none" xmlns="http://www.w3.org/2000/svg">
<path d="M12.7527 21.4421C12.2744 21.6471 11.7205 21.5547 11.3346 21.2055C11.1197 21.0112 10.9067 20.8186 10.6955 20.6278C8.18727 18.3614 5.95201 16.3416 4.26305 14.3927C2.42062 12.2667 1.09748 10.0825 0.784104 7.55302C0.486627 5.15185 1.93001 2.72162 3.97706 1.64105C6.04373 0.550123 8.03139 0.635283 9.7451 1.33916C10.9051 1.81562 11.9204 2.56489 12.771 3.37635C13.6814 2.53716 14.7858 1.76637 15.9897 1.27984C17.7182 0.581289 19.7893 0.429572 21.6717 1.71913C23.5353 2.98883 24.6661 5.12265 24.7444 7.34232C24.745 7.35797 24.7452 7.37363 24.7452 7.38929C24.7452 12.0423 21.5253 15.5936 18.6449 17.8627C17.1731 19.0221 15.7088 19.9119 14.6161 20.5111C14.0681 20.8115 13.6096 21.0411 13.2849 21.197C13.1225 21.2749 12.9933 21.3345 12.9028 21.3755C12.8575 21.396 12.8219 21.4118 12.7967 21.4229L12.7667 21.436L12.7577 21.4399L12.7527 21.4421Z" fill="#212121"/>
</svg>
