<svg width="24" height="23" viewBox="0 0 24 23" fill="none" xmlns="http://www.w3.org/2000/svg">
<path fill-rule="evenodd" clip-rule="evenodd" d="M11.2804 0.724691C12.0484 0.304622 12.8109 0.577874 13.1166 0.707189C13.5082 0.87277 13.8963 1.1281 14.2481 1.39036C14.965 1.92464 15.8212 2.70939 16.7327 3.59457C17.6234 4.45957 18.6148 5.46789 19.6427 6.51343L19.7494 6.62196C20.821 7.71178 21.9354 8.84371 23.0474 9.92816C23.6405 10.5065 23.6525 11.4562 23.0741 12.0493C22.4957 12.6424 21.546 12.6543 20.9529 12.076C20.8019 11.9287 20.6509 11.7807 20.5002 11.6321V20.5686C20.5002 21.2601 20.0274 21.8621 19.3555 22.0259C17.5054 22.477 14.5994 22.5393 11.97 22.4864C10.0239 22.4472 8.12342 22.3411 6.71292 22.2453C6.00666 22.1973 5.42095 22.1517 5.01095 22.118C4.80591 22.1012 4.64469 22.0873 4.53417 22.0776L4.40794 22.0664L4.36358 22.0623L4.3618 22.0622L4.33752 22.0597C3.57792 21.9771 3.00017 21.3352 3.00017 20.5686V11.4762C2.80696 11.6328 2.61848 11.7845 2.43567 11.9303C1.7881 12.447 0.844302 12.3409 0.327636 11.6933C-0.189029 11.0457 -0.0829096 10.1019 0.564661 9.58527C1.44583 8.88222 2.47012 8.03358 3.5303 7.14269L3.54078 7.1339C4.54465 6.29025 5.57824 5.41084 6.55045 4.58365L6.86069 4.3197C7.89351 3.44107 8.8456 2.63243 9.58894 2.01641C9.96008 1.70884 10.2877 1.44219 10.5519 1.23577C10.7799 1.05762 11.0566 0.847103 11.2804 0.724691ZM12.296 3.68074C12.0811 3.85094 11.8147 4.06812 11.5032 4.32631C10.7776 4.92765 9.84091 5.72309 8.80458 6.60472L8.48791 6.87414C7.68945 7.55351 6.84179 8.27474 6.00017 8.98484V9.21046L12.8859 4.13676C12.7316 4.0085 12.5879 3.89459 12.4553 3.79575C12.3975 3.75267 12.3445 3.71448 12.296 3.68074ZM16.4676 7.5647L11.1826 14.2911L13.2653 12.9293L17.1547 8.26199C16.9217 8.02514 16.6925 7.79241 16.4676 7.5647ZM6.00017 16.8404L9.2943 12.6479L6.2645 14.9891C6.18137 15.0533 6.09254 15.1055 6.00017 15.1459V16.8404Z" fill="#212121"/>
</svg>
