<svg width="14" height="14" viewBox="0 0 14 14" fill="none" xmlns="http://www.w3.org/2000/svg">
<path d="M13.5943 0.412442C13.4648 0.281392 13.3104 0.17743 13.1403 0.106611C12.9702 0.0357915 12.7876 -0.00046856 12.6034 -5.75803e-05H8.76181C8.50981 0.00041226 8.26817 0.100237 8.08931 0.277755L0.409621 7.95588C0.147574 8.21846 0.000402451 8.57428 0.000402451 8.94525C0.000402451 9.31623 0.147574 9.67204 0.409621 9.93463L4.06587 13.5909C4.32852 13.853 4.68446 14.0003 5.05556 14.0003C5.42666 14.0003 5.78259 13.853 6.04525 13.5909L13.7218 5.91588C13.8997 5.73731 13.9999 5.49573 14.0006 5.24369V1.39994C14.0017 1.21663 13.9664 1.03492 13.8966 0.865388C13.8269 0.695856 13.7241 0.541888 13.5943 0.412442ZM11.0006 3.99994C10.8028 3.99994 10.6094 3.94129 10.445 3.83141C10.2805 3.72153 10.1524 3.56535 10.0767 3.38263C10.001 3.1999 9.98119 2.99883 10.0198 2.80485C10.0584 2.61087 10.1536 2.43269 10.2935 2.29284C10.4333 2.15298 10.6115 2.05774 10.8055 2.01916C10.9994 1.98057 11.2005 2.00038 11.3832 2.07606C11.566 2.15175 11.7221 2.27992 11.832 2.44437C11.9419 2.60882 12.0006 2.80216 12.0006 2.99994C12.0006 3.26516 11.8952 3.51951 11.7077 3.70705C11.5201 3.89459 11.2658 3.99994 11.0006 3.99994Z" fill="#212121"/>
</svg>
